<svg width="50" height="50" viewBox="0 0 50 50" fill="none" xmlns="http://www.w3.org/2000/svg">
    <path
        d="M7.63535 44.2567H2.70291C2.34451 44.2567 2.00079 44.1144 1.74736 43.8609C1.49394 43.6075 1.35156 43.2638 1.35156 42.9054V27.6925C1.35156 27.3341 1.49394 26.9904 1.74736 26.737C2.00079 26.4836 2.34451 26.3412 2.70291 26.3412H7.63535C7.99375 26.3412 8.33747 26.4836 8.5909 26.737C8.84433 26.9904 8.9867 27.3341 8.9867 27.6925V42.9054C8.9867 43.2638 8.84433 43.6075 8.5909 43.8609C8.33747 44.1144 7.99375 44.2567 7.63535 44.2567ZM2.70291 27.6925V42.9054H7.63535V27.6925H2.70291Z"
        fill="#DF2E2E"
    />
    <path
        d="M30.4902 38.6183H19.0037C18.8245 38.6183 18.6526 38.5471 18.5259 38.4204C18.3992 38.2937 18.328 38.1218 18.328 37.9426C18.328 37.7634 18.3992 37.5915 18.5259 37.4648C18.6526 37.3381 18.8245 37.2669 19.0037 37.2669H30.4902C31.0029 37.2669 31.4946 37.0633 31.8571 36.7007C32.2196 36.3382 32.4233 35.8465 32.4233 35.3338C32.4233 34.8211 32.2196 34.3294 31.8571 33.9669C31.4946 33.6044 31.0029 33.4007 30.4902 33.4007H24.2564C24.0862 33.4005 23.9224 33.3361 23.7976 33.2203C21.6879 31.2601 18.9139 30.172 16.0341 30.175H8.31044C8.13124 30.175 7.95938 30.1038 7.83267 29.9771C7.70595 29.8504 7.63477 29.6786 7.63477 29.4994C7.63477 29.3202 7.70595 29.1483 7.83267 29.0216C7.95938 28.8949 8.13124 28.8237 8.31044 28.8237H16.0348C19.1629 28.8202 22.1829 29.9685 24.5185 32.0494H30.4902C31.3613 32.0494 32.1967 32.3954 32.8126 33.0113C33.4286 33.6273 33.7746 34.4627 33.7746 35.3338C33.7746 36.2049 33.4286 37.0403 32.8126 37.6563C32.1967 38.2722 31.3613 38.6183 30.4902 38.6183Z"
        fill="#DF2E2E"
    />
    <path
        d="M24.9764 46.9595C23.3187 46.9601 21.6752 46.6538 20.1291 46.0561L8.0696 41.3939C7.98591 41.3626 7.90927 41.315 7.84412 41.2538C7.77896 41.1926 7.72658 41.1192 7.69002 41.0376C7.65345 40.9561 7.63342 40.8681 7.63109 40.7788C7.62876 40.6895 7.64417 40.6006 7.67643 40.5172C7.70869 40.4339 7.75716 40.3578 7.81904 40.2933C7.88091 40.2288 7.95496 40.1773 8.0369 40.1416C8.11884 40.1059 8.20703 40.0869 8.29638 40.0856C8.38573 40.0842 8.47446 40.1006 8.55744 40.1338L20.6162 44.7959C22.1961 45.4057 23.8863 45.6774 25.5777 45.5935C27.2691 45.5096 28.9241 45.0719 30.4358 44.3088L47.2 35.8311C46.4975 35.1123 45.6063 34.6065 44.629 34.3719C43.6517 34.1372 42.628 34.1833 41.6757 34.5047L32.798 37.5223C32.6283 37.58 32.4426 37.5679 32.2818 37.4887C32.121 37.4095 31.9982 37.2697 31.9405 37.1C31.8828 36.9303 31.8949 36.7446 31.9741 36.5838C32.0533 36.423 32.1931 36.3003 32.3628 36.2426L41.2412 33.225C42.4448 32.82 43.7387 32.7655 44.9721 33.0678C46.2055 33.3701 47.3275 34.0168 48.2074 34.9324L48.3149 35.0446C48.4449 35.1803 48.5413 35.3447 48.5963 35.5244C48.6513 35.7041 48.6634 35.8943 48.6317 36.0795C48.6 36.2648 48.5253 36.44 48.4136 36.5912C48.3019 36.7424 48.1563 36.8653 47.9885 36.95L31.0453 45.5128C29.1636 46.4641 27.0848 46.9596 24.9764 46.9595Z"
        fill="#DF2E2E"
    />
    <path
        d="M31.7477 28.7162C31.6471 28.7162 31.5477 28.6937 31.4569 28.6503C31.366 28.6069 31.286 28.5438 31.2227 28.4656L17.2295 11.1629C17.1737 11.0939 17.132 11.0146 17.1068 10.9295C17.0817 10.8444 17.0735 10.7552 17.0828 10.6669C17.0922 10.5787 17.1188 10.4931 17.1611 10.4152C17.2035 10.3372 17.2608 10.2683 17.3298 10.2125C17.3988 10.1567 17.4781 10.115 17.5632 10.0899C17.6483 10.0647 17.7375 10.0566 17.8258 10.0659C17.914 10.0752 17.9996 10.1018 18.0775 10.1442C18.1555 10.1866 18.2244 10.2439 18.2802 10.3129L31.7464 26.9656L45.2146 10.3129C45.3273 10.1735 45.4908 10.0847 45.669 10.0659C45.8472 10.0471 46.0256 10.0998 46.165 10.2125C46.3043 10.3252 46.3931 10.4887 46.412 10.6669C46.4308 10.8451 46.378 11.0235 46.2653 11.1629L32.2734 28.4656C32.21 28.5439 32.1299 28.6071 32.039 28.6505C31.948 28.6938 31.8485 28.7163 31.7477 28.7162Z"
        fill="#DF2E2E"
    />
    <path
        d="M31.7476 28.7162C31.6124 28.7162 31.4803 28.6756 31.3684 28.5998C31.2565 28.5239 31.1699 28.4162 31.1199 28.2905L24.228 10.9878C24.1649 10.8274 24.1649 10.649 24.228 10.4885L27.0044 3.46757C27.0355 3.38298 27.0832 3.30547 27.1447 3.23959C27.2062 3.17372 27.2803 3.12082 27.3626 3.08401C27.4448 3.0472 27.5336 3.02722 27.6238 3.02525C27.7139 3.02328 27.8035 3.03935 27.8873 3.07253C27.9711 3.10571 28.0474 3.15532 28.1117 3.21844C28.1761 3.28156 28.2271 3.35691 28.2619 3.44006C28.2967 3.52321 28.3145 3.61248 28.3142 3.70261C28.314 3.79274 28.2957 3.88191 28.2605 3.96487L25.5814 10.7372L31.7476 26.2162L37.9138 10.7385L35.2348 3.96487C35.1996 3.88191 35.1813 3.79274 35.181 3.70261C35.1808 3.61248 35.1986 3.52321 35.2333 3.44006C35.2681 3.35691 35.3192 3.28156 35.3835 3.21844C35.4479 3.15532 35.5242 3.10571 35.608 3.07253C35.6918 3.03935 35.7814 3.02328 35.8715 3.02525C35.9616 3.02722 36.0504 3.0472 36.1327 3.08401C36.2149 3.12082 36.289 3.17372 36.3505 3.23959C36.412 3.30547 36.4598 3.38298 36.4909 3.46757L39.2692 10.4885C39.3324 10.649 39.3324 10.8274 39.2692 10.9878L32.376 28.2905C32.3259 28.4163 32.2393 28.5241 32.1272 28.5999C32.0152 28.6758 31.8829 28.7164 31.7476 28.7162Z"
        fill="#DF2E2E"
    />
    <path
        d="M45.7395 11.4135H17.7557C17.6404 11.4135 17.527 11.384 17.4263 11.3277C17.3255 11.2715 17.2409 11.1904 17.1804 11.0921C17.1199 10.9939 17.0856 10.8819 17.0807 10.7666C17.0758 10.6514 17.1004 10.5368 17.1524 10.4338L20.6828 3.41282C20.7388 3.30137 20.8245 3.2076 20.9305 3.14189C21.0366 3.07617 21.1587 3.04109 21.2834 3.04053H42.2091C42.3344 3.04047 42.4573 3.07526 42.564 3.141C42.6706 3.20675 42.7569 3.30086 42.8132 3.41282L46.3436 10.4338C46.3955 10.5368 46.4202 10.6515 46.4152 10.7668C46.4103 10.8821 46.3759 10.9942 46.3153 11.0924C46.2548 11.1907 46.17 11.2718 46.0692 11.328C45.9684 11.3842 45.8549 11.4136 45.7395 11.4135ZM18.8517 10.0621H44.6436L41.7929 4.39188H21.703L18.8517 10.0621Z"
        fill="#DF2E2E"
    />
</svg>