<svg width="44" height="44" viewBox="0 0 44 44" fill="none" xmlns="http://www.w3.org/2000/svg">
    <path
        d="M7.33341 33H11.0001V40.4818L20.3519 33H29.3334C31.3556 33 33.0001 31.3555 33.0001 29.3333V14.6667C33.0001 12.6445 31.3556 11 29.3334 11H7.33341C5.31125 11 3.66675 12.6445 3.66675 14.6667V29.3333C3.66675 31.3555 5.31125 33 7.33341 33Z"
        fill="white"
    />
    <path
        d="M36.6667 3.66669H14.6667C12.6445 3.66669 11 5.31119 11 7.33335H33C35.0222 7.33335 36.6667 8.97785 36.6667 11V25.6667C38.6888 25.6667 40.3333 24.0222 40.3333 22V7.33335C40.3333 5.31119 38.6888 3.66669 36.6667 3.66669Z"
        fill="white"
    />
</svg>