<svg width="20" height="20" viewBox="0 0 20 20" fill="none" xmlns="http://www.w3.org/2000/svg">
<path
    d="M1.66667 6.13554V17.8064H16.6667V19.4737H1.66667C0.745833 19.4737 0 18.7318 0 17.8064V6.13554H1.66667ZM19.1917 4.71003L11.6667 0L4.14167 4.71003C3.65833 5.0018 3.33333 5.52699 3.33333 6.13554V14.4719C3.33333 15.3889 4.08333 16.1391 5 16.1391H18.3333C19.25 16.1391 20 15.3889 20 14.4719V6.13554C20 5.52699 19.675 5.0018 19.1917 4.71003ZM18.3333 14.4719H5V7.80281L11.6667 11.971L18.3333 7.80281V14.4719ZM11.6667 10.3037L5 6.13554L11.6667 1.96738L18.3333 6.13554L11.6667 10.3037Z"
    fill="#DF2E2E"
/></svg>