<svg width="22" height="22" viewBox="0 0 22 22" fill="none" xmlns="http://www.w3.org/2000/svg">
    <path
        d="M3.66659 16.5H5.49992V20.2409L10.1758 16.5H14.6666C15.6777 16.5 16.4999 15.6777 16.4999 14.6667V7.33333C16.4999 6.32225 15.6777 5.5 14.6666 5.5H3.66659C2.6555 5.5 1.83325 6.32225 1.83325 7.33333V14.6667C1.83325 15.6777 2.6555 16.5 3.66659 16.5Z"
        fill="#DF2E2E"
    />
    <path
        d="M18.3333 1.83331H7.33333C6.32225 1.83331 5.5 2.65556 5.5 3.66665H16.5C17.5111 3.66665 18.3333 4.4889 18.3333 5.49998V12.8333C19.3444 12.8333 20.1667 12.0111 20.1667 11V3.66665C20.1667 2.65556 19.3444 1.83331 18.3333 1.83331Z"
        fill="#DF2E2E"
    />
</svg>